<svg width="508.3" height="99.48088967155834" viewBox="0 0 370 72.41378945204916" class="looka-1j8o68f">
<defs id="SvgjsDefs1289"></defs>
<g id="SvgjsG1290" featurekey="Df7oLJ-0" transform="matrix(1.2068947260245817,0,0,1.2068947260245817,-2.4137894520491634,-2.41368284210959)" fill="#ffc7c7"><g xmlns="http://www.w3.org/2000/svg"><path d="M5,62H33a3,3,0,0,0,3-3V49.926l8.02,2.831a1,1,0,0,0,1.276-.61L59.943,10.656a1,1,0,0,0-.61-1.276L38.588,2.057a1,1,0,0,0-1.276.61L32.6,16H30.539V12.6a3,3,0,0,0-3.766-2.9L2.745,16.033c-.025.007-.044.024-.068.032a.944.944,0,0,0-.154.073.968.968,0,0,0-.168.113,1.014,1.014,0,0,0-.112.115,1.044,1.044,0,0,0-.115.171,1.058,1.058,0,0,0-.064.146.956.956,0,0,0-.043.214A.94.94,0,0,0,2,17V59A3,3,0,0,0,5,62Zm29-3a1,1,0,0,1-1,1H5a1,1,0,0,1-1-1V18H33a1,1,0,0,1,1,1Zm5.362-29.1L40.4,26.965l1.821-5.158L43.5,21.2l.61,1.276L39.251,36.227a1,1,0,0,0,.041.764l1.041,2.178-.322.913-1.983-2.054a1,1,0,0,0-.843-.3L36,37.878v-1.34l.853-.408a1,1,0,0,0,.512-.569l2-5.656Zm4.744-1.421,2.03,3.262-.347.983L43.36,30.6ZM36,33.419V30.671l.984-.041Zm1.7-4.82-1.7.07V27.338l2.448-.854ZM38.865,4.276l18.859,6.657-13.981,39.6L36,47.805V39.894l.937-.117L39.7,42.635a1,1,0,0,0,.72.3.956.956,0,0,0,.212-.023,1,1,0,0,0,.73-.644l1-2.829a1,1,0,0,0-.041-.764L41.275,36.5l1.368-3.875L45.581,35.2a1,1,0,0,0,.659.248.987.987,0,0,0,.253-.033,1,1,0,0,0,.69-.634l1-2.829a1,1,0,0,0-.094-.861l-3.13-5.028,1.172-3.319a1,1,0,0,0-.041-.765l-1.22-2.551a1,1,0,0,0-1.334-.471l-2.552,1.22a1,1,0,0,0-.511.569L39.3,24.069,36,25.22V19a2.991,2.991,0,0,0-1.434-2.547L36.2,11.819h0l.367-1.04ZM27.283,11.629a1,1,0,0,1,1.256.967V16H10.712Z"></path><rect x="48.393" y="14.507" width="2" height="1.818" transform="translate(18.408 56.856) rotate(-70.548)"></rect><rect x="44.964" y="13.296" width="2" height="1.818" transform="translate(17.263 52.815) rotate(-70.548)"></rect><rect x="38.106" y="10.876" width="2" height="1.818" transform="translate(14.971 44.734) rotate(-70.548)"></rect><rect x="41.535" y="12.086" width="2" height="1.818" transform="translate(16.117 48.775) rotate(-70.548)"></rect><rect x="51.822" y="15.718" width="2" height="1.818" transform="translate(19.565 60.905) rotate(-70.563)"></rect><path d="M18.539,22a10,10,0,1,0,10,10A10.011,10.011,0,0,0,18.539,22Zm7.221,6.581-1.364-.3c-.6-.132-1.2-.237-1.806-.328-.092-.606-.2-1.209-.329-1.806l-.3-1.364A8.033,8.033,0,0,1,25.76,28.581ZM10.539,32a7.929,7.929,0,0,1,.1-1.221l2.473-.55c.379-.084.761-.154,1.144-.22a27.281,27.281,0,0,0,0,3.982c-.383-.066-.765-.136-1.144-.22l-2.473-.55A7.929,7.929,0,0,1,10.539,32Zm5.746-2.253a25.3,25.3,0,0,1,4.506,0,25.3,25.3,0,0,1,0,4.506,25.3,25.3,0,0,1-4.506,0A25.3,25.3,0,0,1,16.285,29.747Zm6.533.262c.383.066.765.136,1.144.22l2.473.55a7.22,7.22,0,0,1,0,2.442l-2.473.55c-.379.084-.761.154-1.144.221A27.3,27.3,0,0,0,22.818,30.009ZM19.759,24.1l.55,2.474c.084.379.155.761.221,1.144a27.3,27.3,0,0,0-3.983,0c.066-.383.136-.765.221-1.144l.55-2.474a7.283,7.283,0,0,1,2.441,0Zm-4.64.676-.3,1.364c-.132.6-.237,1.2-.328,1.806-.606.091-1.209.2-1.806.328l-1.364.3A8.037,8.037,0,0,1,15.119,24.779Zm-3.8,10.64,1.364.3c.6.132,1.2.237,1.806.328.091.606.2,1.209.328,1.806l.3,1.364A8.037,8.037,0,0,1,11.317,35.419Zm6,4.478-.55-2.474c-.085-.378-.155-.761-.221-1.143.662.048,1.327.081,1.992.081s1.328-.033,1.991-.081c-.066.382-.137.765-.221,1.143l-.55,2.474a7.283,7.283,0,0,1-2.441,0Zm4.64-.676.3-1.364c.133-.6.237-1.2.329-1.806.605-.091,1.209-.2,1.806-.328l1.364-.3A8.033,8.033,0,0,1,21.958,39.221Z"></path><rect x="10.539" y="50" width="16" height="2"></rect><rect x="12.539" y="54" width="12" height="2"></rect><rect x="17.539" y="46" width="2" height="2"></rect><rect x="13.539" y="46" width="2" height="2"></rect><rect x="21.539" y="46" width="2" height="2"></rect></g></g>
</svg>